<?xml version="1.0" encoding="UTF-8"?>
<svg width="512" height="512" viewBox="0 0 512 512" fill="none" xmlns="http://www.w3.org/2000/svg">
    <!-- Background Circle -->
    <circle cx="256" cy="256" r="248" fill="url(#gradient)" stroke="#ffffff" stroke-width="16"/>
    
    <!-- Document Icon -->
    <path d="M160 96h128l64 64v256H160V96z" fill="white"/>
    <path d="M288 96v64h64" fill="#1e3c72"/>
    
    <!-- Lines on Document -->
    <rect x="192" y="200" width="128" height="12" rx="6" fill="#1e3c72" opacity="0.8"/>
    <rect x="192" y="240" width="128" height="12" rx="6" fill="#1e3c72" opacity="0.8"/>
    <rect x="192" y="280" width="96" height="12" rx="6" fill="#1e3c72" opacity="0.8"/>
    
    <!-- Gear Icon -->
    <path d="M368 256c0-8.8-1.8-17.2-5-24.8l28.5-28.5-22.6-22.6-28.5 28.5c-7.6-3.2-16-5-24.8-5s-17.2 1.8-24.8 5l-28.5-28.5-22.6 22.6 28.5 28.5c-3.2 7.6-5 16-5 24.8s1.8 17.2 5 24.8l-28.5 28.5 22.6 22.6 28.5-28.5c7.6 3.2 16 5 24.8 5s17.2-1.8 24.8-5l28.5 28.5 22.6-22.6-28.5-28.5c3.2-7.6 5-16 5-24.8z" fill="#2a5298"/>
    <circle cx="368" cy="256" r="24" fill="white"/>
    
    <!-- Gradient Definition -->
    <defs>
        <linearGradient id="gradient" x1="0" y1="0" x2="512" y2="512" gradientUnits="userSpaceOnUse">
            <stop offset="0%" stop-color="#1e3c72"/>
            <stop offset="100%" stop-color="#2a5298"/>
        </linearGradient>
    </defs>
</svg> 